# xmcd
#
# Track frame offsets: 
#        182
#        22120
#        44135
#        70235
#        95527
#        121842
#        141052
#        163915
#        182960
#
# Disc length: 2694 seconds
#
# Revision: 2
# Processed by: cddbd v1.5.2PL0 Copyright (c) Steve Scherf et al.
# Submitted via: ExactAudioCopy v1.0b4
#
DISCID=850a8409
DTITLE=Luther Allison - Rich Man
DYEAR=1995
DGENRE=Blues
TTITLE0=Chicago
TTITLE1=Rich Man
TTITLE2=Love Is Free
TTITLE3=Cold As Ice
TTITLE4=Freedom
TTITLE5=Fight
TTITLE6=Mistake
TTITLE7=Get Down
TTITLE8=Cry
EXTD=YEAR: 1995 ID3G: 0
EXTT0=
EXTT1=
EXTT2=
EXTT3=
EXTT4=
EXTT5=
EXTT6=
EXTT7=
EXTT8=
PLAYORDER=
